<svg width="18" height="18" viewBox="0 0 18 18" fill="none" xmlns="http://www.w3.org/2000/svg">
<path d="M4.5 16L7 12H5.5V9L3 13H4.5V16ZM2 7H8V2H2V7ZM2 16H8V9H2V16ZM0 18V2C0 1.45 0.195833 0.979167 0.5875 0.5875C0.979167 0.195833 1.45 0 2 0H8C8.55 0 9.02083 0.195833 9.4125 0.5875C9.80417 0.979167 10 1.45 10 2V9H11.25C11.7333 9 12.1458 9.17083 12.4875 9.5125C12.8292 9.85417 13 10.2667 13 10.75V15.375C13 15.6583 13.1167 15.9167 13.35 16.15C13.5833 16.3833 13.8417 16.5 14.125 16.5C14.425 16.5 14.6875 16.3833 14.9125 16.15C15.1375 15.9167 15.25 15.6583 15.25 15.375V6H15C14.7167 6 14.4792 5.90417 14.2875 5.7125C14.0958 5.52083 14 5.28333 14 5V3H14.5V1.5H15.5V3H16.5V1.5H17.5V3H18V5C18 5.28333 17.9042 5.52083 17.7125 5.7125C17.5208 5.90417 17.2833 6 17 6H16.75V15.375C16.75 16.075 16.4958 16.6875 15.9875 17.2125C15.4792 17.7375 14.8583 18 14.125 18C13.4083 18 12.7917 17.7375 12.275 17.2125C11.7583 16.6875 11.5 16.075 11.5 15.375V10.75C11.5 10.6667 11.4792 10.6042 11.4375 10.5625C11.3958 10.5208 11.3333 10.5 11.25 10.5H10V18H0ZM8 16H2H8Z" fill="#53686A"/>
</svg>
