<svg width="14" height="17" viewBox="0 0 14 17" fill="none" xmlns="http://www.w3.org/2000/svg">
<path d="M2.25 10.5V11.25C2.25 11.4625 2.17812 11.6406 2.03437 11.7844C1.89062 11.9281 1.7125 12 1.5 12H0.75C0.5375 12 0.359375 11.9281 0.215625 11.7844C0.071875 11.6406 0 11.4625 0 11.25V5.25L1.575 0.75C1.65 0.525 1.78437 0.34375 1.97812 0.20625C2.17188 0.06875 2.3875 0 2.625 0H10.875C11.1125 0 11.3281 0.06875 11.5219 0.20625C11.7156 0.34375 11.85 0.525 11.925 0.75L13.5 5.25V11.25C13.5 11.4625 13.4281 11.6406 13.2844 11.7844C13.1406 11.9281 12.9625 12 12.75 12H12C11.7875 12 11.6094 11.9281 11.4656 11.7844C11.3219 11.6406 11.25 11.4625 11.25 11.25V10.5H2.25ZM2.1 3.75H11.4L10.6125 1.5H2.8875L2.1 3.75ZM1.5 5.25V9V5.25ZM3.375 8.25C3.6875 8.25 3.95312 8.14062 4.17188 7.92188C4.39062 7.70312 4.5 7.4375 4.5 7.125C4.5 6.8125 4.39062 6.54688 4.17188 6.32812C3.95312 6.10938 3.6875 6 3.375 6C3.0625 6 2.79688 6.10938 2.57812 6.32812C2.35938 6.54688 2.25 6.8125 2.25 7.125C2.25 7.4375 2.35938 7.70312 2.57812 7.92188C2.79688 8.14062 3.0625 8.25 3.375 8.25ZM10.125 8.25C10.4375 8.25 10.7031 8.14062 10.9219 7.92188C11.1406 7.70312 11.25 7.4375 11.25 7.125C11.25 6.8125 11.1406 6.54688 10.9219 6.32812C10.7031 6.10938 10.4375 6 10.125 6C9.8125 6 9.54688 6.10938 9.32812 6.32812C9.10938 6.54688 9 6.8125 9 7.125C9 7.4375 9.10938 7.70312 9.32812 7.92188C9.54688 8.14062 9.8125 8.25 10.125 8.25ZM7.5 16.5L3 14.25H6V12.75L10.5 15H7.5V16.5ZM1.5 9H12V5.25H1.5V9Z" fill="#00696F"/>
</svg>
