<svg width="12" height="19" viewBox="0 0 12 19" fill="none" xmlns="http://www.w3.org/2000/svg">
<path d="M6 11.5C6.4125 11.5 6.76562 11.3531 7.05937 11.0594C7.35312 10.7656 7.5 10.4125 7.5 10C7.5 9.5875 7.35312 9.23438 7.05937 8.94063C6.76562 8.64688 6.4125 8.5 6 8.5C5.5875 8.5 5.23438 8.64688 4.94063 8.94063C4.64688 9.23438 4.5 9.5875 4.5 10C4.5 10.4125 4.64688 10.7656 4.94063 11.0594C5.23438 11.3531 5.5875 11.5 6 11.5ZM6 17.0125C7.525 15.6125 8.65625 14.3406 9.39375 13.1969C10.1313 12.0531 10.5 11.0375 10.5 10.15C10.5 8.7875 10.0656 7.67188 9.19687 6.80312C8.32812 5.93437 7.2625 5.5 6 5.5C4.7375 5.5 3.67188 5.93437 2.80312 6.80312C1.93437 7.67188 1.5 8.7875 1.5 10.15C1.5 11.0375 1.86875 12.0531 2.60625 13.1969C3.34375 14.3406 4.475 15.6125 6 17.0125ZM6 19C3.9875 17.2875 2.48438 15.6969 1.49063 14.2281C0.496875 12.7594 0 11.4 0 10.15C0 8.275 0.603125 6.78125 1.80938 5.66875C3.01562 4.55625 4.4125 4 6 4C7.5875 4 8.98438 4.55625 10.1906 5.66875C11.3969 6.78125 12 8.275 12 10.15C12 11.4 11.5031 12.7594 10.5094 14.2281C9.51562 15.6969 8.0125 17.2875 6 19Z" fill="#6B7A7B"/>
</svg>
