<svg width="15" height="15" viewBox="0 0 15 15" fill="none" xmlns="http://www.w3.org/2000/svg">
<path d="M10.5 6.75C10.7125 6.75 10.8906 6.67813 11.0344 6.53438C11.1781 6.39062 11.25 6.2125 11.25 6C11.25 5.7875 11.1781 5.60938 11.0344 5.46562C10.8906 5.32187 10.7125 5.25 10.5 5.25C10.2875 5.25 10.1094 5.32187 9.96562 5.46562C9.82187 5.60938 9.75 5.7875 9.75 6C9.75 6.2125 9.82187 6.39062 9.96562 6.53438C10.1094 6.67813 10.2875 6.75 10.5 6.75ZM4.5 5.25H8.25V3.75H4.5V5.25ZM1.875 14.25C1.45 12.825 1.03125 11.4031 0.61875 9.98438C0.20625 8.56563 0 7.1125 0 5.625C0 4.475 0.4 3.5 1.2 2.7C2 1.9 2.975 1.5 4.125 1.5H7.875C8.2375 1.025 8.67812 0.65625 9.19687 0.39375C9.71562 0.13125 10.275 0 10.875 0C11.1875 0 11.4531 0.109375 11.6719 0.328125C11.8906 0.546875 12 0.8125 12 1.125C12 1.2 11.9906 1.275 11.9719 1.35C11.9531 1.425 11.9312 1.49375 11.9062 1.55625C11.8562 1.69375 11.8094 1.83438 11.7656 1.97812C11.7219 2.12188 11.6875 2.26875 11.6625 2.41875L13.3687 4.125H15V9.35625L12.8813 10.05L11.625 14.25H7.5V12.75H6V14.25H1.875ZM3 12.75H4.5V11.25H9V12.75H10.5L11.6625 8.8875L13.5 8.26875V5.625H12.75L10.125 3C10.125 2.75 10.1406 2.50938 10.1719 2.27813C10.2031 2.04688 10.25 1.8125 10.3125 1.575C9.95 1.675 9.63125 1.84688 9.35625 2.09063C9.08125 2.33438 8.88125 2.6375 8.75625 3H4.125C3.4 3 2.78125 3.25625 2.26875 3.76875C1.75625 4.28125 1.5 4.9 1.5 5.625C1.5 6.85 1.66875 8.04688 2.00625 9.21562C2.34375 10.3844 2.675 11.5625 3 12.75Z" fill="#005F64"/>
</svg>
