<svg width="24" height="24" viewBox="0 0 24 24" fill="none" xmlns="http://www.w3.org/2000/svg">
<path d="M0 5.83333V0H5.83333V2.33333H2.33333V5.83333H0ZM0 23.3333V17.5H2.33333V21H5.83333V23.3333H0ZM17.5 23.3333V21H21V17.5H23.3333V23.3333H17.5ZM21 5.83333V2.33333H17.5V0H23.3333V5.83333H21ZM18.0833 18.0833H19.8333V19.8333H18.0833V18.0833ZM18.0833 14.5833H19.8333V16.3333H18.0833V14.5833ZM16.3333 16.3333H18.0833V18.0833H16.3333V16.3333ZM14.5833 18.0833H16.3333V19.8333H14.5833V18.0833ZM12.8333 16.3333H14.5833V18.0833H12.8333V16.3333ZM16.3333 12.8333H18.0833V14.5833H16.3333V12.8333ZM14.5833 14.5833H16.3333V16.3333H14.5833V14.5833ZM12.8333 12.8333H14.5833V14.5833H12.8333V12.8333ZM19.8333 3.5V10.5H12.8333V3.5H19.8333ZM10.5 12.8333V19.8333H3.5V12.8333H10.5ZM10.5 3.5V10.5H3.5V3.5H10.5ZM8.75 18.0833V14.5833H5.25V18.0833H8.75ZM8.75 8.75V5.25H5.25V8.75H8.75ZM18.0833 8.75V5.25H14.5833V8.75H18.0833Z" fill="white"/>
</svg>
