<svg width="14" height="15" viewBox="0 0 14 15" fill="none" xmlns="http://www.w3.org/2000/svg">
<path d="M2.25 15C1.625 15 1.09375 14.7812 0.65625 14.3438C0.21875 13.9062 0 13.375 0 12.75V10.5H2.25V0L3.375 1.125L4.5 0L5.625 1.125L6.75 0L7.875 1.125L9 0L10.125 1.125L11.25 0L12.375 1.125L13.5 0V12.75C13.5 13.375 13.2812 13.9062 12.8438 14.3438C12.4062 14.7812 11.875 15 11.25 15H2.25ZM11.25 13.5C11.4625 13.5 11.6406 13.4281 11.7844 13.2844C11.9281 13.1406 12 12.9625 12 12.75V2.25H3.75V10.5H10.5V12.75C10.5 12.9625 10.5719 13.1406 10.7156 13.2844C10.8594 13.4281 11.0375 13.5 11.25 13.5ZM4.5 5.25V3.75H9V5.25H4.5ZM4.5 7.5V6H9V7.5H4.5ZM10.5 5.25C10.2875 5.25 10.1094 5.17813 9.96562 5.03438C9.82187 4.89062 9.75 4.7125 9.75 4.5C9.75 4.2875 9.82187 4.10938 9.96562 3.96563C10.1094 3.82188 10.2875 3.75 10.5 3.75C10.7125 3.75 10.8906 3.82188 11.0344 3.96563C11.1781 4.10938 11.25 4.2875 11.25 4.5C11.25 4.7125 11.1781 4.89062 11.0344 5.03438C10.8906 5.17813 10.7125 5.25 10.5 5.25ZM10.5 7.5C10.2875 7.5 10.1094 7.42813 9.96562 7.28438C9.82187 7.14062 9.75 6.9625 9.75 6.75C9.75 6.5375 9.82187 6.35938 9.96562 6.21562C10.1094 6.07187 10.2875 6 10.5 6C10.7125 6 10.8906 6.07187 11.0344 6.21562C11.1781 6.35938 11.25 6.5375 11.25 6.75C11.25 6.9625 11.1781 7.14062 11.0344 7.28438C10.8906 7.42813 10.7125 7.5 10.5 7.5ZM2.25 13.5H9V12H1.5V12.75C1.5 12.9625 1.57188 13.1406 1.71563 13.2844C1.85938 13.4281 2.0375 13.5 2.25 13.5ZM1.5 13.5C1.5 13.5 1.5 13.4281 1.5 13.2844C1.5 13.1406 1.5 12.9625 1.5 12.75V12V13.5Z" fill="#3B494A"/>
</svg>
