<svg width="18" height="20" viewBox="0 0 18 20" fill="none" xmlns="http://www.w3.org/2000/svg">
<path d="M6.75 15.8333C6.75 17.214 5.74264 18.3333 4.5 18.3333C3.25736 18.3333 2.25 17.214 2.25 15.8333C2.25 14.4526 3.25736 13.3333 4.5 13.3333C5.74264 13.3333 6.75 14.4526 6.75 15.8333ZM6.75 15.8333H13.125C13.8212 15.8333 14.4889 15.526 14.9812 14.9791C15.4734 14.4321 15.75 13.6902 15.75 12.9167C15.75 12.1431 15.4734 11.4013 14.9812 10.8543C14.4889 10.3073 13.8212 10 13.125 10H4.875C4.17881 10 3.51113 9.69271 3.01884 9.14573C2.52656 8.59875 2.25 7.85689 2.25 7.08334C2.25 6.30979 2.52656 5.56792 3.01884 5.02094C3.51113 4.47396 4.17881 4.16667 4.875 4.16667H11.25M11.25 4.16667C11.25 5.54738 12.2574 6.66667 13.5 6.66667C14.7426 6.66667 15.75 5.54738 15.75 4.16667C15.75 2.78596 14.7426 1.66667 13.5 1.66667C12.2574 1.66667 11.25 2.78596 11.25 4.16667Z" stroke="black" stroke-width="2" stroke-linecap="round" stroke-linejoin="round"/>
</svg>
