<svg width="13" height="12" viewBox="0 0 13 12" fill="none" xmlns="http://www.w3.org/2000/svg">
<path d="M1.33333 12C0.966667 12 0.652778 11.8694 0.391667 11.6083C0.130556 11.3472 0 11.0333 0 10.6667V1.33333C0 0.966667 0.130556 0.652778 0.391667 0.391667C0.652778 0.130556 0.966667 0 1.33333 0H10.6667C11.0333 0 11.3472 0.130556 11.6083 0.391667C11.8694 0.652778 12 0.966667 12 1.33333H6.66667C5.87778 1.33333 5.23611 1.58056 4.74167 2.075C4.24722 2.56944 4 3.21111 4 4V8C4 8.78889 4.24722 9.43056 4.74167 9.925C5.23611 10.4194 5.87778 10.6667 6.66667 10.6667H12C12 11.0333 11.8694 11.3472 11.6083 11.6083C11.3472 11.8694 11.0333 12 10.6667 12H1.33333ZM6.66667 9.33333C6.3 9.33333 5.98611 9.20278 5.725 8.94167C5.46389 8.68056 5.33333 8.36667 5.33333 8V4C5.33333 3.63333 5.46389 3.31944 5.725 3.05833C5.98611 2.79722 6.3 2.66667 6.66667 2.66667H11.3333C11.7 2.66667 12.0139 2.79722 12.275 3.05833C12.5361 3.31944 12.6667 3.63333 12.6667 4V8C12.6667 8.36667 12.5361 8.68056 12.275 8.94167C12.0139 9.20278 11.7 9.33333 11.3333 9.33333H6.66667ZM8.66667 7C8.95556 7 9.19444 6.90556 9.38333 6.71667C9.57222 6.52778 9.66667 6.28889 9.66667 6C9.66667 5.71111 9.57222 5.47222 9.38333 5.28333C9.19444 5.09444 8.95556 5 8.66667 5C8.37778 5 8.13889 5.09444 7.95 5.28333C7.76111 5.47222 7.66667 5.71111 7.66667 6C7.66667 6.28889 7.76111 6.52778 7.95 6.71667C8.13889 6.90556 8.37778 7 8.66667 7Z" fill="#00696F"/>
</svg>
